PathFileType	4	(X/Y/Z)	/Users/mathieubourgeois/Desktop/Analyse/Traitement/Sujet_04/Data/Transformed_Sujet_04_velo_100.trc
DataRate	CameraRate	NumFrames	NumMarkers	Units	OrigDataRate	OrigDataStartFrame	OrigNumFrames
120.000000	120.000000	5	36	mm	120.000000	1461	1948
Frame#	Time	RFHD			RANE			STRN			LANI			LKNE			T10			RHUM			RWRB			C7			LFWT			LTOE			RTOE			LWRA			LBWT			RBWT			RFWT			LKNI			RKNI			RKNE			LANE			RANI			LHEE			RHEE			LHUM			LRAD			RRAD			RWRA			LWRB			LFHD			LBHD			RBHD			RSHO			LSHO			CLAV			LCAR			RCAR			
		X1	Y1	Z1	X2	Y2	Z2	X3	Y3	Z3	X4	Y4	Z4	X5	Y5	Z5	X6	Y6	Z6	X7	Y7	Z7	X8	Y8	Z8	X9	Y9	Z9	X10	Y10	Z10	X11	Y11	Z11	X12	Y12	Z12	X13	Y13	Z13	X14	Y14	Z14	X15	Y15	Z15	X16	Y16	Z16	X17	Y17	Z17	X18	Y18	Z18	X19	Y19	Z19	X20	Y20	Z20	X21	Y21	Z21	X22	Y22	Z22	X23	Y23	Z23	X24	Y24	Z24	X25	Y25	Z25	X26	Y26	Z26	X27	Y27	Z27	X28	Y28	Z28	X29	Y29	Z29	X30	Y30	Z30	X31	Y31	Z31	X32	Y32	Z32	X33	Y33	Z33	X34	Y34	Z34	X35	Y35	Z35	X36	Y36	Z36	

1462	12.175	310.3375854492188	1470.391845703125	58.49310302734369	-346.5333251953125	518.3956298828125	142.8636016845703	-61.42943572998047	1213.251098632812	-25.91038322448739	-47.91493988037108	379.1647644042969	-140.7042541503907	16.19392585754397	817.568115234375	-230.9952850341797	-198.7877197265625	1442.739013671875	-27.76072120666515	82.60880279541013	1067.867065429688	189.1959381103515	315.4486999511719	906.6495971679688	226.5785217285156	68.1141357421875	1497.874267578125	-8.451968193054283	-229.8255004882812	1162.831909179688	-159.9567413330079	131.4186706542969	288.6444396972656	-159.8373565673828	-197.6690521240234	349.5197448730469	69.16650390624994	321.0997009277344	943.9690551757812	-216.5652465820313	-403.7928771972656	1257.694946289062	-103.8844604492189	-419.955078125	1251.8603515625	26.63414382934558	-262.6748962402344	1181.518920898438	122.8152770996093	28.96858787536623	769.527587890625	-117.1518783569336	-8.345083236694343	781.5147094726562	57.9979858398437	-5.5960912704468	819.2547607421875	177.9754333496093	-76.936653137207	366.5562133789062	-235.7784881591797	-326.097412109375	514.587158203125	51.13097763061516	-131.7729187011718	347.7435302734375	-187.3745727539063	-399.2178955078125	537.2692260742188	101.7456970214843	79.76230621337893	1080.330078125	-249.6562957763672	119.1681060791016	1103.5380859375	-308.3669128417969	124.5786895751953	1087.094848632812	243.057144165039	322.2762451171875	917.2899780273438	151.6029968261718	283.5463867187501	890.83544921875	-264.8589782714844	302.3292236328125	1470.620361328125	-73.66503143310551	173.4264373779297	1573.931884765625	-53.18420791625984	184.5322723388672	1562.84130859375	86.07759857177727	84.83927154541014	1417.286743164062	148.0019989013671	99.59079742431643	1419.096069335938	-180.4448699951173	64.92495727539062	1326.906372070312	-21.44471359252937	397.1778869628907	917.21142578125	-297.6597595214844	401.7015380859374	935.3574829101562	233.3012542724609	
1463	12.18333333333333	309.3627624511719	1469.896850585938	60.83494949340815	-341.5674743652344	533.3373413085938	143.3182373046874	-61.68292999267578	1213.221923828125	-24.64772033691414	-52.41986083984374	365.2507934570312	-141.143051147461	7.040529727935819	804.5447387695312	-230.9451904296876	-198.7420043945312	1442.648559570312	-27.96539115905773	82.41144561767575	1067.648071289062	189.7026824951171	315.4653625488281	906.6160278320312	226.6367034912109	68.1075439453125	1497.912719726562	-6.871905326843345	-229.0574035644531	1162.04345703125	-160.3527069091798	125.9870681762695	271.6929321289062	-160.2994079589844	-192.2030334472656	365.6407165527344	69.43161773681635	321.199951171875	943.8121948242188	-216.4406890869141	-403.5321044921875	1257.024536132812	-104.6642684936525	-419.8381042480469	1251.881225585938	25.66961860656725	-262.3714904785156	1182.244506835938	122.4049530029296	19.66552162170412	756.302001953125	-117.3370056152344	0.8110994100570607	790.685302734375	58.7782478332519	2.223856687545755	830.92919921875	179.3836669921874	-81.56686401367185	353.0383605957031	-236.3549957275391	-320.9969482421875	530.1510009765625	51.52819442749016	-136.3514862060547	334.8111267089844	-187.8254547119141	-394.2042236328125	552.64794921875	102.1919403076171	80.09901428222659	1080.598022460938	-248.7575378417969	119.4481353759766	1103.915771484375	-307.5042724609376	124.362922668457	1086.780151367188	243.6056976318359	322.1761474609375	917.3729858398438	151.8018493652343	283.5270996093751	890.7470703125	-264.7711791992188	302.4140625	1470.701293945312	-71.91819763183598	173.4914703369141	1574.017944335938	-51.54562377929695	184.3685607910156	1562.852783203125	87.67435455322259	84.49835205078124	1417.114135742188	149.6440887451171	99.50942993164065	1418.927124023438	-178.6390991210938	64.97335815429688	1326.728881835938	-20.01402091979988	396.9463806152344	917.21044921875	-297.5563049316406	401.7033691406249	935.3828735351562	233.3050231933594	
1464	12.19166666666667	310.2668762207031	1470.431518554688	62.0072517395019	-335.7701721191406	547.7461547851562	143.6445922851562	-61.70038604736328	1213.281860351562	-23.2693405151368	-58.22667694091795	352.1688537597656	-141.6131286621094	-2.452937841415377	792.1201171875	-230.9066467285157	-198.5690612792969	1442.61083984375	-28.09628295898449	82.3298645019531	1067.551147460938	190.3185424804687	315.4532470703125	906.5888061523438	226.7697296142578	68.19697570800781	1498.060668945312	-5.302174091339195	-228.3760070800781	1161.303588867188	-160.7959442138673	118.9881134033203	255.6459197998047	-160.3632659912109	-187.2797546386719	378.05908203125	68.05140686035151	321.3456115722656	943.67578125	-216.2886962890625	-403.1925659179688	1256.558837890625	-105.3106842041017	-419.5462646484375	1252.106689453125	25.09977340698229	-261.9342041015625	1183.073120117188	122.0428848266601	9.950398445129409	743.6170043945312	-117.4438095092774	8.932974815368645	802.620849609375	59.69264984130854	9.626941680908182	842.8095092773438	181.2152557373046	-87.19781494140622	340.4548950195312	-236.83251953125	-315.3097839355469	544.76318359375	51.70728683471673	-144.4658813476562	323.2601623535156	-188.2638549804688	-388.7023315429688	566.81689453125	102.4276580810546	80.3122482299805	1080.978393554688	-248.0605621337891	119.7668380737305	1104.347412109375	-306.5910644531251	124.2489166259765	1086.546997070312	244.2015991210937	322.0600280761719	917.365966796875	152.3763580322265	283.5180664062501	890.7208251953125	-264.6222229003906	302.6067810058594	1470.789184570312	-70.19816589355473	173.7011566162109	1574.164428710938	-49.90810012817391	184.4264678955078	1562.942626953125	89.30537414550774	84.34826660156249	1417.046020507812	151.2204132080077	98.41449737548831	1418.437377929688	-176.435287475586	65.07905578613281	1326.647583007812	-18.56409454345711	396.9399719238282	917.220703125	-297.5008239746094	401.7386779785156	935.3790893554688	233.3554077148438	
1465	12.2	309.5356140136719	1469.972412109375	64.29580688476558	-329.1520080566406	560.6302490234375	143.9601440429687	-61.58838272094727	1213.403686523438	-21.85157966613778	-65.1942901611328	340.0225219726562	-142.0976867675782	-12.15786361694333	780.4910278320312	-230.9126586914063	-198.2822723388672	1442.617309570312	-28.11783599853527	82.4126052856445	1067.545288085938	190.7573242187499	315.5744018554688	906.5750122070312	226.9446868896484	68.35759735107422	1498.280395507812	-3.744729042053306	-227.7546081542968	1160.64013671875	-161.3289489746095	110.5867080688477	240.3615264892578	-160.4933624267578	-179.1222381591797	393.1462097167969	68.10443878173822	321.5153503417969	943.5918579101562	-216.1109771728516	-402.7548217773438	1256.22900390625	-105.8441390991212	-419.0857849121094	1252.146606445312	25.41659164428698	-261.4090881347656	1183.906982421875	121.6749877929687	-0.04007862135766497	731.8104248046875	-117.5852508544922	17.04947662353515	814.4923095703125	60.56030273437495	16.8545513153076	854.5035400390625	182.5682678222656	-94.417610168457	328.6765441894531	-237.4141845703125	-309.1232604980469	558.30859375	51.80213165283196	-149.5078887939453	312.0613708496094	-189.0553741455079	-382.7072143554688	579.5772705078125	102.5818634033202	80.68321228027347	1081.36865234375	-247.0705871582032	120.1837615966797	1104.828979492188	-305.7033691406251	124.266128540039	1086.392700195312	244.8193359375	322.0000305175781	917.3248901367188	152.74951171875	283.5288391113282	890.7225952148438	-264.4283142089844	302.8822326660156	1470.85986328125	-68.4913711547852	174.0752258300781	1574.347045898438	-48.36543273925789	184.6404113769531	1563.100952148438	90.89383697509759	84.31918334960936	1417.089477539062	152.843536376953	98.94306945800784	1418.6630859375	-174.7601013183595	65.29733276367188	1326.737670898438	-17.06871414184578	396.9681396484376	917.232666015625	-297.4288635253906	401.7997436523437	935.3751831054688	233.4402465820312	
1466	12.20833333333333	309.7846374511719	1470.037109375	65.95921325683589	-322.6849670410156	573.296142578125	144.7580108642578	-63.9074821472168	1211.620483398438	-21.19078826904305	-73.47953033447264	328.8427124023438	-142.4910583496094	-21.95562171936032	769.767333984375	-230.9151916503907	-197.9054565429688	1442.66552734375	-28.06061363220226	82.56503295898435	1067.608154296875	191.3737335205078	313.8870849609375	908.6119995117188	227.3243408203125	68.63990783691406	1498.494018554688	-2.176432609558189	-227.2718200683593	1159.892211914062	-161.8797607421876	100.9600677490235	225.7432098388672	-160.5314788818359	-167.9062805175781	411.5107727050781	70.86206054687496	321.6999206542969	943.5189208984375	-215.8745422363282	-402.1768493652344	1255.989868164062	-106.2681884765626	-418.5090026855469	1252.736938476562	25.12809753417956	-260.8571472167969	1184.837036132812	121.3488388061522	-9.783272743225083	721.0282592773438	-117.9407806396485	24.13064002990722	825.9268188476562	61.10872268676753	23.81655693054197	865.8153686523438	183.5194244384765	-102.751480102539	317.9322204589844	-237.9410247802735	-302.300048828125	570.594482421875	51.74748992919915	-157.7709808349609	302.4093933105469	-189.5634155273438	-376.1778564453125	590.7600708007812	102.649070739746	81.13037109375003	1081.853393554688	-246.1711120605469	120.5641250610352	1105.327392578125	-304.7655944824219	124.4046020507812	1086.3369140625	245.4587249755859	321.9843139648438	917.3576049804688	153.0326538085937	283.9086303710938	891.1181640625	-264.0147094726562	303.2660217285156	1470.98681640625	-66.84187316894536	174.5334320068359	1574.608642578125	-46.76821517944344	184.9736480712891	1563.307373046875	92.45153808593743	84.4200973510742	1417.198364257812	154.3904418945312	99.56227111816408	1418.932983398438	-172.9736938476563	65.67826843261719	1326.904296875	-15.61030769348152	397.0247497558594	917.23974609375	-297.2798156738281	401.8933715820312	935.3485107421875	233.5579376220703	
